<?xml version="1.0" encoding="UTF-8" standalone="no"?>
<svg width="241px" height="41px" viewBox="0 0 241 41" version="1.1" xmlns="http://www.w3.org/2000/svg" xmlns:xlink="http://www.w3.org/1999/xlink">
    <!-- Generator: Sketch 42 (36781) - http://www.bohemiancoding.com/sketch -->
    <title>logo_blue</title>
    <desc>Created with Sketch.</desc>
    <defs></defs>
    <g id="Desktop" stroke="none" stroke-width="1" fill="none" fill-rule="evenodd">
        <g transform="translate(-33.000000, -88.000000)" id="Nav-+-Header">
            <g transform="translate(-17.000000, -10.000000)">
                <g id="logo_blue" transform="translate(50.000000, 98.000000)">
                    <polygon id="Fill-1" fill="#4E7BB8" points="236.85056 33.6438756 237.839664 33.6438756 237.839664 39.8575303 241 39.8575303 241 40.7192331 236.85056 40.7192331"></polygon>
                    <polygon id="Fill-2" fill="#0F206C" points="94.1216574 4.4908641 79.5790926 4.4908641 79.5790926 11.191009 92.4692454 11.191009 92.4692454 15.2395025 79.5790926 15.2395025 79.5790926 22.1594068 94.3051968 22.1594068 94.3051968 26.2084594 75.0625741 26.2084594 75.0625741 0.442370608 94.1216574 0.442370608"></polygon>
                    <polygon id="Fill-3" fill="#0F206C" points="119.489697 26.2085713 112.733329 16.4541624 105.939025 26.2085713 100.760873 26.2085713 110.125843 13.1040899 101.127951 0.442482445 106.453382 0.442482445 112.843229 9.68076435 119.269338 0.442482445 124.447491 0.442482445 115.486977 13.0308368 124.814569 26.2085713"></polygon>
                    <path d="M141.649424,26.650159 C134.15834,26.650159 128.576847,20.7977374 128.576847,13.3622653 C128.576847,6.00060548 134.047882,0 141.833521,0 C146.570398,0 149.435063,1.65630355 151.895271,4.01214652 L148.994345,7.36221897 C146.937477,5.44813151 144.734447,4.15977115 141.796701,4.15977115 C136.875727,4.15977115 133.313167,8.20882382 133.313167,13.2890121 C133.313167,18.3686413 136.875727,22.4909471 141.796701,22.4909471 C144.954806,22.4909471 146.974296,21.2020275 149.177884,19.1414338 L152.079368,22.0860977 C149.397685,24.883137 146.45994,26.650159 141.649424,26.650159" id="Fill-4" fill="#0F206C"></path>
                    <polygon id="Fill-5" fill="#0F206C" points="178.805822 4.4908641 164.263257 4.4908641 164.263257 11.191009 177.15341 11.191009 177.15341 15.2395025 164.263257 15.2395025 164.263257 22.1594068 178.989361 22.1594068 178.989361 26.2084594 159.746738 26.2084594 159.746738 0.442370608 178.805822 0.442370608"></polygon>
                    <polygon id="Fill-6" fill="#0F206C" points="207.809502 4.4908641 193.266938 4.4908641 193.266938 11.191009 206.15709 11.191009 206.15709 15.2395025 193.266938 15.2395025 193.266938 22.1594068 207.993042 22.1594068 207.993042 26.2084594 188.750419 26.2084594 188.750419 0.442370608 207.809502 0.442370608"></polygon>
                    <path d="M227.33887,4.56495601 L222.271176,4.56495601 L222.271176,22.085874 L227.33887,22.085874 C232.736824,22.085874 236.262565,18.4416707 236.262565,13.3620416 C236.262565,8.28241246 232.736824,4.56495601 227.33887,4.56495601 M227.33887,26.208739 L217.754657,26.208739 L217.754657,0.442091016 L227.33887,0.442091016 C235.418507,0.442091016 241,6.00094099 241,13.2887885 C241,20.5771951 235.418507,26.208739 227.33887,26.208739" id="Fill-7" fill="#0F206C"></path>
                    <path d="M75.6226759,39.1563692 C75.6226759,39.1563692 76.3724537,39.9174189 77.42125,39.9174189 C78.0823264,39.9174189 78.6413125,39.5466798 78.6413125,38.8756588 C78.6413125,37.3423757 75.222125,37.6728536 75.222125,35.4981863 C75.222125,34.3954751 76.1721782,33.5237069 77.5021412,33.5237069 C78.8109051,33.5237069 79.5009907,34.2349892 79.5009907,34.2349892 L79.0519051,35.05699 C79.0519051,35.05699 78.4019861,34.4458017 77.5021412,34.4458017 C76.7523634,34.4458017 76.2223866,34.9171939 76.2223866,35.4780557 C76.2223866,36.9414407 79.6415741,36.5505709 79.6415741,38.8454628 C79.6415741,39.9381087 78.8014213,40.8395136 77.4017245,40.8395136 C75.902169,40.8395136 75.0620162,39.9079128 75.0620162,39.9079128 L75.6226759,39.1563692 Z" id="Fill-8" fill="#4E7BB8"></path>
                    <polygon id="Fill-9" fill="#4E7BB8" points="83.9745532 34.5061936 81.5556273 34.5061936 81.5556273 33.6439315 87.3842569 33.6439315 87.3842569 34.5061936 84.9647731 34.5061936 84.9647731 40.719289 83.9745532 40.719289"></polygon>
                    <path d="M92.406206,37.0411991 C93.176625,37.0411991 93.6563935,36.5502354 93.6563935,35.7584306 C93.6563935,35.2378301 93.4561181,34.8665318 93.0962917,34.6669031 C92.9066157,34.5662499 92.6762153,34.5064172 92.126713,34.5064172 L90.9869838,34.5064172 L90.9869838,37.0411991 L92.406206,37.0411991 Z M89.9967639,33.6441552 L92.156838,33.6441552 C92.8971319,33.6441552 93.2061921,33.7045471 93.4762014,33.8040819 C94.196412,34.074727 94.6666968,34.7865685 94.6666968,35.7187285 C94.6666968,36.6206926 94.1657292,37.3823015 93.3964259,37.6322568 L93.3964259,37.6523874 C93.3964259,37.6523874 93.4762014,37.7429753 93.6067431,37.9733592 L95.1062986,40.7195127 L93.9860949,40.7195127 L92.496581,37.9034611 L90.9869838,37.9034611 L90.9869838,40.7195127 L89.9967639,40.7195127 L89.9967639,33.6441552 Z" id="Fill-10" fill="#4E7BB8"></path>
                    <path d="M100.18013,34.6164088 C100.18013,34.6164088 100.020021,35.257793 99.9006366,35.6184668 L99.1101343,37.8630321 L101.250125,37.8630321 L100.469664,35.6184668 C100.349722,35.257793 100.199655,34.6164088 100.199655,34.6164088 L100.18013,34.6164088 Z M101.510093,38.6850329 L98.8501667,38.6850329 L98.1505972,40.7193449 L97.1308102,40.7193449 L99.6696782,33.6439875 L100.710106,33.6439875 L103.248975,40.7193449 L102.219704,40.7193449 L101.510093,38.6850329 Z" id="Fill-11" fill="#4E7BB8"></path>
                    <polygon id="Fill-12" fill="#4E7BB8" points="106.973317 34.5061936 104.552718 34.5061936 104.552718 33.6439315 110.381347 33.6439315 110.381347 34.5061936 107.962421 34.5061936 107.962421 40.719289 106.973317 40.719289"></polygon>
                    <polygon id="Fill-13" fill="#4E7BB8" points="112.996086 33.6438756 117.095317 33.6438756 117.095317 34.5061376 113.98519 34.5061376 113.98519 36.720507 116.51569 36.720507 116.51569 37.582769 113.98519 37.582769 113.98519 39.8575303 117.265468 39.8575303 117.265468 40.7192331 112.996086 40.7192331"></polygon>
                    <path d="M122.857002,33.5239865 C124.54735,33.5239865 125.427669,34.3761832 125.427669,34.3761832 L124.926701,35.1171023 C124.926701,35.1171023 124.136757,34.4253914 122.937336,34.4253914 C121.278229,34.4253914 120.277968,35.6382619 120.277968,37.1514143 C120.277968,38.7954158 121.397613,39.9277638 122.877644,39.9277638 C124.097706,39.9277638 124.877051,39.0453712 124.877051,39.0453712 L124.877051,38.0237417 L123.727838,38.0237417 L123.727838,37.1620388 L125.776896,37.1620388 L125.776896,40.7195686 L124.907176,40.7195686 L124.907176,40.2789315 C124.907176,40.1285109 124.917218,39.9775312 124.917218,39.9775312 L124.897692,39.9775312 C124.897692,39.9775312 124.127273,40.839234 122.727576,40.839234 C120.82747,40.839234 119.258181,39.3361469 119.258181,37.171545 C119.258181,35.1277268 120.797903,33.5239865 122.857002,33.5239865" id="Fill-14" fill="#4E7BB8"></path>
                    <polygon id="Fill-15" fill="#4E7BB8" points="128.931095 40.7191772 129.921315 40.7191772 129.921315 33.6438197 128.931095 33.6438197"></polygon>
                    <path d="M136.152727,33.5239865 C137.851442,33.5239865 138.722278,34.4561466 138.722278,34.4561466 L138.232468,35.1970656 C138.232468,35.1970656 137.41184,34.4253914 136.191778,34.4253914 C134.613005,34.4253914 133.58206,35.6287558 133.58206,37.1318429 C133.58206,38.6444361 134.63253,39.9277638 136.201819,39.9277638 C137.531225,39.9277638 138.381419,39.0056691 138.381419,39.0056691 L138.911396,39.7169514 C138.911396,39.7169514 137.941817,40.839234 136.172252,40.839234 C134.052345,40.839234 132.562273,39.2164815 132.562273,37.141349 C132.562273,35.0869063 134.102553,33.5239865 136.152727,33.5239865" id="Fill-16" fill="#4E7BB8"></path>
                    <polygon id="Fill-17" fill="#4E7BB8" points="146.437625 33.6438756 147.426729 33.6438756 147.426729 39.8575303 150.587065 39.8575303 150.587065 40.7192331 146.437625 40.7192331"></polygon>
                    <polygon id="Fill-18" fill="#4E7BB8" points="153.12928 33.6438756 157.228512 33.6438756 157.228512 34.5061376 154.1195 34.5061376 154.1195 36.720507 156.648884 36.720507 156.648884 37.582769 154.1195 37.582769 154.1195 39.8575303 157.398662 39.8575303 157.398662 40.7192331 153.12928 40.7192331"></polygon>
                    <path d="M162.941104,33.5239865 C164.631451,33.5239865 165.511771,34.3761832 165.511771,34.3761832 L165.010803,35.1171023 C165.010803,35.1171023 164.220859,34.4253914 163.021438,34.4253914 C161.362331,34.4253914 160.362069,35.6382619 160.362069,37.1514143 C160.362069,38.7954158 161.481715,39.9277638 162.961745,39.9277638 C164.181808,39.9277638 164.961153,39.0453712 164.961153,39.0453712 L164.961153,38.0237417 L163.81194,38.0237417 L163.81194,37.1620388 L165.860998,37.1620388 L165.860998,40.7195686 L164.991278,40.7195686 L164.991278,40.2789315 C164.991278,40.1285109 165.001319,39.9775312 165.001319,39.9775312 L164.981794,39.9775312 C164.981794,39.9775312 164.210817,40.839234 162.811678,40.839234 C160.911572,40.839234 159.342282,39.3361469 159.342282,37.171545 C159.342282,35.1277268 160.882005,33.5239865 162.941104,33.5239865" id="Fill-19" fill="#4E7BB8"></path>
                    <path d="M170.784762,34.6164088 C170.784762,34.6164088 170.624653,35.257793 170.505269,35.6184668 L169.714766,37.8630321 L171.854757,37.8630321 L171.074296,35.6184668 C170.954354,35.257793 170.804287,34.6164088 170.804287,34.6164088 L170.784762,34.6164088 Z M172.114725,38.6850329 L169.454799,38.6850329 L168.755229,40.7193449 L167.735442,40.7193449 L170.27431,33.6439875 L171.314738,33.6439875 L173.853606,40.7193449 L172.824336,40.7193449 L172.114725,38.6850329 Z" id="Fill-20" fill="#4E7BB8"></path>
                    <polygon id="Fill-21" fill="#4E7BB8" points="176.298194 33.6438756 177.287299 33.6438756 177.287299 39.8575303 180.447634 39.8575303 180.447634 40.7192331 176.298194 40.7192331"></polygon>
                    <path d="M190.871442,33.5239865 C192.571273,33.5239865 193.440993,34.4561466 193.440993,34.4561466 L192.951183,35.1970656 C192.951183,35.1970656 192.131671,34.4253914 190.911609,34.4253914 C189.33172,34.4253914 188.301891,35.6287558 188.301891,37.1318429 C188.301891,38.6444361 189.352361,39.9277638 190.92165,39.9277638 C192.251613,39.9277638 193.10125,39.0056691 193.10125,39.0056691 L193.631227,39.7169514 C193.631227,39.7169514 192.661648,40.839234 190.890968,40.839234 C188.772176,40.839234 187.282662,39.2164815 187.282662,37.141349 C187.282662,35.0869063 188.822384,33.5239865 190.871442,33.5239865" id="Fill-22" fill="#4E7BB8"></path>
                    <path d="M199.333778,39.9274842 C200.773641,39.9274842 201.933454,38.724679 201.933454,37.1315633 C201.933454,35.588215 200.773641,34.425671 199.333778,34.425671 C197.893914,34.425671 196.72406,35.588215 196.72406,37.1315633 C196.72406,38.724679 197.893914,39.9274842 199.333778,39.9274842 M199.333778,33.5237069 C201.374468,33.5237069 202.953241,35.0972512 202.953241,37.1315633 C202.953241,39.2162019 201.374468,40.8395136 199.333778,40.8395136 C197.294204,40.8395136 195.704273,39.2162019 195.704273,37.1315633 C195.704273,35.0972512 197.294204,33.5237069 199.333778,33.5237069" id="Fill-23" fill="#4E7BB8"></path>
                    <path d="M205.29797,33.6438756 L206.28819,33.6438756 L206.28819,38.2135288 C206.28819,39.2966685 206.987759,39.9274283 208.067796,39.9274283 C209.157875,39.9274283 209.867486,39.2966685 209.867486,38.1939573 L209.867486,33.6438756 L210.857706,33.6438756 L210.857706,38.2135288 C210.857706,39.7870731 209.726903,40.8394577 208.07728,40.8394577 C206.428773,40.8394577 205.29797,39.7870731 205.29797,38.2135288 L205.29797,33.6438756 Z" id="Fill-24" fill="#4E7BB8"></path>
                    <path d="M213.681088,33.6438756 L214.661824,33.6438756 L217.799845,38.2437247 C218.06037,38.6250883 218.391188,39.2664726 218.391188,39.2664726 L218.410713,39.2664726 C218.410713,39.2664726 218.340979,38.6351537 218.340979,38.2437247 L218.340979,33.6438756 L219.330083,33.6438756 L219.330083,40.7192331 L218.360505,40.7192331 L215.211326,36.1294493 C214.950801,35.7385796 214.6211,35.0971953 214.6211,35.0971953 L214.600458,35.0971953 C214.600458,35.0971953 214.671308,35.7285143 214.671308,36.1294493 L214.671308,40.7192331 L213.681088,40.7192331 L213.681088,33.6438756 Z" id="Fill-25" fill="#4E7BB8"></path>
                    <path d="M222.474799,39.1563692 C222.474799,39.1563692 223.224576,39.9174189 224.273373,39.9174189 C224.934449,39.9174189 225.493435,39.5466798 225.493435,38.8756588 C225.493435,37.3423757 222.074248,37.6728536 222.074248,35.4981863 C222.074248,34.3954751 223.024301,33.5237069 224.354264,33.5237069 C225.663028,33.5237069 226.353113,34.2349892 226.353113,34.2349892 L225.904028,35.05699 C225.904028,35.05699 225.254109,34.4458017 224.354264,34.4458017 C223.604486,34.4458017 223.074509,34.9171939 223.074509,35.4780557 C223.074509,36.9414407 226.493697,36.5505709 226.493697,38.8454628 C226.493697,39.9381087 225.653544,40.8395136 224.253847,40.8395136 C222.754292,40.8395136 221.914139,39.9079128 221.914139,39.9079128 L222.474799,39.1563692 Z" id="Fill-26" fill="#4E7BB8"></path>
                    <polygon id="Fill-27" fill="#4E7BB8" points="229.517354 33.6438756 233.616586 33.6438756 233.616586 34.5061376 230.506458 34.5061376 230.506458 36.720507 233.036958 36.720507 233.036958 37.582769 230.506458 37.582769 230.506458 39.8575303 233.786736 39.8575303 233.786736 40.7192331 229.517354 40.7192331"></polygon>
                    <path d="M62.0669838,15.0347292 L61.1325509,15.0341701 C43.4399153,15.0213088 25.9021444,18.3339159 9.42711667,24.7992035 L5.83275787,26.2100252 L42.6973898,26.2351885 C50.6872093,26.2407803 58.0720741,21.9702907 62.0669838,15.0347292" id="Fill-28" fill="#416CA9"></path>
                    <path d="M67.9000764,0.529211912 L66.9656435,0.528652728 C49.2726731,0.515791491 31.7349023,3.8283986 15.2598745,10.2936861 L11.6655157,11.7045078 L48.5301477,11.7296711 C56.5200787,11.735263 63.9051667,7.46477335 67.9000764,0.529211912 L67.9000764,0.529211912 Z" id="Fill-29" fill="#0F206C"></path>
                    <path d="M56.2344491,29.5401907 L55.3000162,29.5396315 C37.6071574,29.5273294 20.0693866,32.8393773 3.5943588,39.3046649 L0,40.7154866 L36.8646319,40.7406499 C44.8544514,40.7462417 52.2395394,36.4757521 56.2344491,29.5401907" id="Fill-30" fill="#94A8CC"></path>
                </g>
            </g>
        </g>
    </g>
</svg>