<?xml version="1.0" encoding="UTF-8" standalone="no"?>
<svg width="188px" height="32px" viewBox="0 0 188 32" version="1.1" xmlns="http://www.w3.org/2000/svg" xmlns:xlink="http://www.w3.org/1999/xlink">
    <!-- Generator: Sketch 42 (36781) - http://www.bohemiancoding.com/sketch -->
    <title>Logo_WHT</title>
    <desc>Created with Sketch.</desc>
    <defs></defs>
    <g id="Desktop" stroke="none" stroke-width="1" fill="none" fill-rule="evenodd">
        <g transform="translate(-33.000000, -24.000000)" id="Nav-+-Header" fill="#FFFFFF">
            <g transform="translate(0.000000, -1.000000)">
                <g id="Logo_WHT" transform="translate(33.000000, 25.000000)">
                    <polygon id="Fill-1" points="184.763093 26.2586346 185.534676 26.2586346 185.534676 31.1083163 188 31.1083163 188 31.7808649 184.763093 31.7808649"></polygon>
                    <polygon id="Fill-2" points="73.4227037 3.50506466 62.0782963 3.50506466 62.0782963 8.73444605 72.1336852 8.73444605 72.1336852 11.8942458 62.0782963 11.8942458 62.0782963 17.2951467 73.5658796 17.2951467 73.5658796 20.455383 58.555037 20.455383 58.555037 0.345264865 73.4227037 0.345264865"></polygon>
                    <polygon id="Fill-3" points="93.2118796 20.4554703 87.9413519 12.8422731 82.6412315 20.4554703 78.6018426 20.4554703 85.9072963 10.2275824 78.8881944 0.345352152 83.0424722 0.345352152 88.0270833 7.55571852 93.0399815 0.345352152 97.0793704 0.345352152 90.0894259 10.1704092 97.3657222 20.4554703"></polygon>
                    <path d="M110.498306,20.8001241 C104.654639,20.8001241 100.300611,16.2323804 100.300611,10.4290851 C100.300611,4.6833994 104.568472,0 110.641917,0 C114.337074,0 116.57175,1.29272472 118.490917,3.13143143 L116.227954,5.74612212 C114.623426,4.2522002 112.90488,3.24665065 110.613194,3.24665065 C106.774426,3.24665065 103.995333,6.40688689 103.995333,10.3719119 C103.995333,14.3365005 106.774426,17.5539099 110.613194,17.5539099 C113.076778,17.5539099 114.652148,16.5479239 116.37113,14.9396557 L118.634528,17.2379299 C116.542593,19.420985 114.250907,20.8001241 110.498306,20.8001241" id="Fill-4"></path>
                    <polygon id="Fill-5" points="139.48338 3.50506466 128.138972 3.50506466 128.138972 8.73444605 138.194361 8.73444605 138.194361 11.8942458 128.138972 11.8942458 128.138972 17.2951467 139.626556 17.2951467 139.626556 20.455383 124.615713 20.455383 124.615713 0.345264865 139.48338 0.345264865"></polygon>
                    <polygon id="Fill-6" points="162.108657 3.50506466 150.76425 3.50506466 150.76425 8.73444605 160.819639 8.73444605 160.819639 11.8942458 150.76425 11.8942458 150.76425 17.2951467 162.251833 17.2951467 162.251833 20.455383 147.240991 20.455383 147.240991 0.345264865 162.108657 0.345264865"></polygon>
                    <path d="M177.343185,3.56289249 L173.389963,3.56289249 L173.389963,17.2377554 L177.343185,17.2377554 C181.554037,17.2377554 184.304407,14.3934991 184.304407,10.4289105 C184.304407,6.46432192 181.554037,3.56289249 177.343185,3.56289249 M177.343185,20.4556012 L169.866704,20.4556012 L169.866704,0.345046647 L177.343185,0.345046647 C183.645972,0.345046647 188,4.68366126 188,10.3717373 C188,16.0602498 183.645972,20.4556012 177.343185,20.4556012" id="Fill-7"></path>
                    <path d="M58.991963,30.5610687 C58.991963,30.5610687 59.5768519,31.1550587 60.395,31.1550587 C60.9106944,31.1550587 61.34675,30.8657013 61.34675,30.3419776 C61.34675,29.1452689 58.6795,29.4032028 58.6795,27.7059015 C58.6795,26.8452488 59.4206204,26.1648444 60.4581019,26.1648444 C61.4790463,26.1648444 62.0173704,26.7199916 62.0173704,26.7199916 L61.6670463,27.3615532 C61.6670463,27.3615532 61.1600556,26.8845281 60.4581019,26.8845281 C59.873213,26.8845281 59.459787,27.252444 59.459787,27.6901898 C59.459787,28.8323439 62.127037,28.5272749 62.127037,30.31841 C62.127037,31.1712068 61.4716481,31.8747423 60.3797685,31.8747423 C59.2099907,31.8747423 58.5546019,31.1476392 58.5546019,31.1476392 L58.991963,30.5610687 Z" id="Fill-8"></path>
                    <polygon id="Fill-9" points="65.5071204 26.9316633 63.6201574 26.9316633 63.6201574 26.2586783 68.1669722 26.2586783 68.1669722 26.9316633 66.2795741 26.9316633 66.2795741 31.7809085 65.5071204 31.7809085"></polygon>
                    <path d="M72.0845093,28.9102042 C72.6855,28.9102042 73.0597593,28.527013 73.0597593,27.909019 C73.0597593,27.5026967 72.9035278,27.2129029 72.6228333,27.0570951 C72.4748704,26.9785365 72.2951389,26.9318378 71.8664815,26.9318378 L70.9773981,26.9318378 L70.9773981,28.9102042 L72.0845093,28.9102042 Z M70.2049444,26.2588529 L71.8899815,26.2588529 C72.4674722,26.2588529 72.7085648,26.305988 72.9191944,26.3836737 C73.4810185,26.5949089 73.8478796,27.1504925 73.8478796,27.878032 C73.8478796,28.582004 73.4570833,29.1764304 72.856963,29.3715175 L72.856963,29.3872292 C72.856963,29.3872292 72.9191944,29.4579319 73.0210278,29.6377437 L74.1908056,31.7810831 L73.3169537,31.7810831 L72.1550093,29.5831892 L70.9773981,29.5831892 L70.9773981,31.7810831 L70.2049444,31.7810831 L70.2049444,26.2588529 Z" id="Fill-10"></path>
                    <path d="M78.1488148,27.0176849 C78.1488148,27.0176849 78.0239167,27.5182775 77.930787,27.799779 L77.3141296,29.5516348 L78.9835,29.5516348 L78.3746759,27.799779 C78.2811111,27.5182775 78.1640463,27.0176849 78.1640463,27.0176849 L78.1488148,27.0176849 Z M79.1862963,30.1931964 L77.1113333,30.1931964 L76.5656111,31.7809522 L75.7700926,31.7809522 L77.7506204,26.2587219 L78.5622407,26.2587219 L80.5427685,31.7809522 L79.7398519,31.7809522 L79.1862963,30.1931964 Z" id="Fill-11"></path>
                    <polygon id="Fill-12" points="83.4480648 26.9316633 81.5597963 26.9316633 81.5597963 26.2586783 86.1066111 26.2586783 86.1066111 26.9316633 84.2196481 26.9316633 84.2196481 31.7809085 83.4480648 31.7809085"></polygon>
                    <polygon id="Fill-13" points="88.1463241 26.2586346 91.3440648 26.2586346 91.3440648 26.9316196 88.9179074 26.9316196 88.9179074 28.6599079 90.8919074 28.6599079 90.8919074 29.3328929 88.9179074 29.3328929 88.9179074 31.1083163 91.4767963 31.1083163 91.4767963 31.7808649 88.1463241 31.7808649"></polygon>
                    <path d="M95.8386574,26.1650627 C97.1572685,26.1650627 97.8439907,26.8301918 97.8439907,26.8301918 L97.4531944,27.4084701 C97.4531944,27.4084701 96.8369722,26.8685982 95.9013241,26.8685982 C94.6070833,26.8685982 93.8267963,27.8152288 93.8267963,28.9962258 C93.8267963,30.2793489 94.700213,31.1631327 95.8547593,31.1631327 C96.8065093,31.1631327 97.414463,30.474436 97.414463,30.474436 L97.414463,29.6770667 L96.5179815,29.6770667 L96.5179815,29.0045181 L98.1164167,29.0045181 L98.1164167,31.7811267 L97.437963,31.7811267 L97.437963,31.4372148 C97.437963,31.3198134 97.4457963,31.2019756 97.4457963,31.2019756 L97.4305648,31.2019756 C97.4305648,31.2019756 96.8295741,31.8745241 95.7376944,31.8745241 C94.2554537,31.8745241 93.0312778,30.701383 93.0312778,29.0119375 C93.0312778,27.4167624 94.2323889,26.1650627 95.8386574,26.1650627" id="Fill-14"></path>
                    <polygon id="Fill-15" points="100.576954 31.7808212 101.349407 31.7808212 101.349407 26.258591 100.576954 26.258591"></polygon>
                    <path d="M106.210426,26.1650627 C107.535565,26.1650627 108.214889,26.8926022 108.214889,26.8926022 L107.832796,27.4708805 C107.832796,27.4708805 107.192639,26.8685982 106.240889,26.8685982 C105.009315,26.8685982 104.205093,27.8078094 104.205093,28.9809506 C104.205093,30.1615111 105.024546,31.1631327 106.248722,31.1631327 C107.285769,31.1631327 107.948991,30.443449 107.948991,30.443449 L108.362417,30.9985962 C108.362417,30.9985962 107.606065,31.8745241 106.225657,31.8745241 C104.571954,31.8745241 103.409574,30.6079856 103.409574,28.98837 C103.409574,27.3849025 104.61112,26.1650627 106.210426,26.1650627" id="Fill-16"></path>
                    <polygon id="Fill-17" points="114.2335 26.2586346 115.005083 26.2586346 115.005083 31.1083163 117.470407 31.1083163 117.470407 31.7808649 114.2335 31.7808649"></polygon>
                    <polygon id="Fill-18" points="119.453546 26.2586346 122.651287 26.2586346 122.651287 26.9316196 120.226 26.9316196 120.226 28.6599079 122.19913 28.6599079 122.19913 29.3328929 120.226 29.3328929 120.226 31.1083163 122.784019 31.1083163 122.784019 31.7808649 119.453546 31.7808649"></polygon>
                    <path d="M127.107583,26.1650627 C128.426194,26.1650627 129.112917,26.8301918 129.112917,26.8301918 L128.72212,27.4084701 C128.72212,27.4084701 128.105898,26.8685982 127.17025,26.8685982 C125.876009,26.8685982 125.095722,27.8152288 125.095722,28.9962258 C125.095722,30.2793489 125.969139,31.1631327 127.123685,31.1631327 C128.075435,31.1631327 128.683389,30.474436 128.683389,30.474436 L128.683389,29.6770667 L127.786907,29.6770667 L127.786907,29.0045181 L129.385343,29.0045181 L129.385343,31.7811267 L128.706889,31.7811267 L128.706889,31.4372148 C128.706889,31.3198134 128.714722,31.2019756 128.714722,31.2019756 L128.699491,31.2019756 C128.699491,31.2019756 128.098065,31.8745241 127.00662,31.8745241 C125.52438,31.8745241 124.300204,30.701383 124.300204,29.0119375 C124.300204,27.4167624 125.501315,26.1650627 127.107583,26.1650627" id="Fill-19"></path>
                    <path d="M133.226287,27.0176849 C133.226287,27.0176849 133.101389,27.5182775 133.008259,27.799779 L132.391602,29.5516348 L134.060972,29.5516348 L133.452148,27.799779 C133.358583,27.5182775 133.241519,27.0176849 133.241519,27.0176849 L133.226287,27.0176849 Z M134.263769,30.1931964 L132.188806,30.1931964 L131.643083,31.7809522 L130.847565,31.7809522 L132.828093,26.2587219 L133.639713,26.2587219 L135.620241,31.7809522 L134.817324,31.7809522 L134.263769,30.1931964 Z" id="Fill-20"></path>
                    <polygon id="Fill-21" points="137.527222 26.2586346 138.298806 26.2586346 138.298806 31.1083163 140.76413 31.1083163 140.76413 31.7808649 137.527222 31.7808649"></polygon>
                    <path d="M148.895565,26.1650627 C150.221574,26.1650627 150.900028,26.8926022 150.900028,26.8926022 L150.517935,27.4708805 C150.517935,27.4708805 149.878648,26.8685982 148.926898,26.8685982 C147.694454,26.8685982 146.891102,27.8078094 146.891102,28.9809506 C146.891102,30.1615111 147.710556,31.1631327 148.934731,31.1631327 C149.972213,31.1631327 150.635,30.443449 150.635,30.443449 L151.048426,30.9985962 C151.048426,30.9985962 150.292074,31.8745241 148.910796,31.8745241 C147.257963,31.8745241 146.096019,30.6079856 146.096019,28.98837 C146.096019,27.3849025 147.29713,26.1650627 148.895565,26.1650627" id="Fill-22"></path>
                    <path d="M155.496889,31.1629145 C156.620102,31.1629145 157.524852,30.2241397 157.524852,28.9807323 C157.524852,27.7761678 156.620102,26.8688164 155.496889,26.8688164 C154.373676,26.8688164 153.461093,27.7761678 153.461093,28.9807323 C153.461093,30.2241397 154.373676,31.1629145 155.496889,31.1629145 M155.496889,26.1648444 C157.088796,26.1648444 158.32037,27.3929766 158.32037,28.9807323 C158.32037,30.6077674 157.088796,31.8747423 155.496889,31.8747423 C153.905852,31.8747423 152.665574,30.6077674 152.665574,28.9807323 C152.665574,27.3929766 153.905852,26.1648444 155.496889,26.1648444" id="Fill-23"></path>
                    <path d="M160.149454,26.2586346 L160.921907,26.2586346 L160.921907,29.8251932 C160.921907,30.6705706 161.46763,31.1628709 162.310148,31.1628709 C163.1605,31.1628709 163.714056,30.6705706 163.714056,29.8099179 L163.714056,26.2586346 L164.486509,26.2586346 L164.486509,29.8251932 C164.486509,31.0533253 163.604389,31.8746987 162.317546,31.8746987 C161.031574,31.8746987 160.149454,31.0533253 160.149454,29.8251932 L160.149454,26.2586346 Z" id="Fill-24"></path>
                    <path d="M166.688981,26.2586346 L167.454037,26.2586346 L169.901954,29.8487608 C170.105185,30.1464104 170.36325,30.647003 170.36325,30.647003 L170.378481,30.647003 C170.378481,30.647003 170.324083,30.1542663 170.324083,29.8487608 L170.324083,26.2586346 L171.095667,26.2586346 L171.095667,31.7808649 L170.339315,31.7808649 L167.882694,28.1985946 C167.679463,27.8935255 167.422269,27.3929329 167.422269,27.3929329 L167.406167,27.3929329 C167.406167,27.3929329 167.461435,27.8856697 167.461435,28.1985946 L167.461435,31.7808649 L166.688981,31.7808649 L166.688981,26.2586346 Z" id="Fill-25"></path>
                    <path d="M173.548806,30.5610687 C173.548806,30.5610687 174.133694,31.1550587 174.951843,31.1550587 C175.467537,31.1550587 175.903593,30.8657013 175.903593,30.3419776 C175.903593,29.1452689 173.236343,29.4032028 173.236343,27.7059015 C173.236343,26.8452488 173.977463,26.1648444 175.014944,26.1648444 C176.035889,26.1648444 176.574213,26.7199916 176.574213,26.7199916 L176.223889,27.3615532 C176.223889,27.3615532 175.716898,26.8845281 175.014944,26.8845281 C174.430056,26.8845281 174.01663,27.252444 174.01663,27.6901898 C174.01663,28.8323439 176.68388,28.5272749 176.68388,30.31841 C176.68388,31.1712068 176.028491,31.8747423 174.936611,31.8747423 C173.766833,31.8747423 173.111444,31.1476392 173.111444,31.1476392 L173.548806,30.5610687 Z" id="Fill-26"></path>
                    <polygon id="Fill-27" points="179.042583 26.2586346 182.240324 26.2586346 182.240324 26.9316196 179.814167 26.9316196 179.814167 28.6599079 181.788167 28.6599079 181.788167 29.3328929 179.814167 29.3328929 179.814167 31.1083163 182.373056 31.1083163 182.373056 31.7808649 179.042583 31.7808649"></polygon>
                    <path d="M48.4173981,11.7344228 L47.688463,11.7339864 C33.8867389,11.7239483 20.2058222,14.3093978 7.35393333,19.3554759 L4.55003519,20.456605 L33.3075074,20.4762446 C39.5402296,20.480609 45.301037,17.1475439 48.4173981,11.7344228" id="Fill-28"></path>
                    <path d="M52.9676944,0.413043443 L52.2387593,0.412607007 C38.4367741,0.402568969 24.7558574,2.98801842 11.9039685,8.0340965 L9.10007037,9.13522563 L37.8575426,9.15486527 C44.0903519,9.15922963 49.8513333,5.82616456 52.9676944,0.413043443 L52.9676944,0.413043443 Z" id="Fill-29"></path>
                    <path d="M43.867537,23.0557586 L43.1386019,23.0553221 C29.3367037,23.0457205 15.655787,25.6307335 2.80389815,30.6768116 L0,31.7779407 L28.7574722,31.7975804 C34.9901944,31.8019447 40.7511759,28.4688797 43.867537,23.0557586" id="Fill-30"></path>
                </g>
            </g>
        </g>
    </g>
</svg>