<?xml version="1.0" encoding="UTF-8" standalone="no"?>
<svg width="75px" height="73px" viewBox="0 0 75 73" version="1.1" xmlns="http://www.w3.org/2000/svg" xmlns:xlink="http://www.w3.org/1999/xlink">
    <!-- Generator: Sketch 42 (36781) - http://www.bohemiancoding.com/sketch -->
    <title>Money Icon</title>
    <desc>Created with Sketch.</desc>
    <defs></defs>
    <g id="Practice-Areas" stroke="none" stroke-width="1" fill="none" fill-rule="evenodd">
        <g id="Desktop" transform="translate(-59.000000, -1365.000000)" fill="#D8D8D8">
            <g id="Money-Icon" transform="translate(59.000000, 1365.000000)">
                <g id="stack2" transform="translate(39.000000, 0.000000)">
                    <ellipse id="Oval-3-Copy" cx="18.0260135" cy="4.65689753" rx="17.5035203" ry="4.65689753"></ellipse>
                    <path d="M0.522493145,8.79636201 C0.522493145,8.79636201 7.26658331,12.0374375 16.7957187,12.0374375 C32.7144185,12.0374375 35.8492849,8.79636201 35.8492849,8.79636201 L35.8492849,13.8002299 C35.8492849,13.8002299 30.3813263,17.1941147 17.3471418,17.1941147 C4.31295724,17.1941147 0.522493145,12.9952384 0.522493145,12.9952384 L0.522493145,8.79636201 Z" id="Rectangle-14-Copy-9"></path>
                    <path d="M0,17.075291 C0,17.075291 6.74409017,20.3163664 16.2732255,20.3163664 C32.1919253,20.3163664 35.3267917,17.075291 35.3267917,17.075291 L35.3267917,22.0791589 C35.3267917,22.0791589 29.8588332,25.4730437 16.8246486,25.4730437 C3.79046409,25.4730437 0,21.2741673 0,21.2741673 L0,17.075291 Z" id="Rectangle-14-Copy-8"></path>
                    <path d="M0,25.3542199 C0,25.3542199 6.74409017,28.5952954 16.2732255,28.5952954 C32.1919253,28.5952954 35.3267917,25.3542199 35.3267917,25.3542199 L35.3267917,30.3580878 C35.3267917,30.3580878 29.8588332,33.7519726 16.8246486,33.7519726 C3.79046409,33.7519726 0,29.5530963 0,29.5530963 L0,25.3542199 Z" id="Rectangle-14-Copy-7"></path>
                    <path d="M0,33.1157158 C0,33.1157158 6.74409017,36.3567913 16.2732255,36.3567913 C32.1919253,36.3567913 35.3267917,33.1157158 35.3267917,33.1157158 L35.3267917,38.1195837 C35.3267917,38.1195837 29.8588332,41.5134685 16.8246486,41.5134685 C3.79046409,41.5134685 0,37.3145922 0,37.3145922 L0,33.1157158 Z" id="Rectangle-14-Copy-6"></path>
                    <path d="M0,40.8772117 C0,40.8772117 6.74409017,44.1182872 16.2732255,44.1182872 C32.1919253,44.1182872 35.3267917,40.8772117 35.3267917,40.8772117 L35.3267917,45.8810796 C35.3267917,45.8810796 29.8588332,49.2749644 16.8246486,49.2749644 C3.79046409,49.2749644 0,45.076088 0,45.076088 L0,40.8772117 Z" id="Rectangle-14-Copy-5"></path>
                    <path d="M0,48.7575314 C0,48.7575314 6.74409017,51.9986068 16.2732255,51.9986068 C32.1919253,51.9986068 35.3267917,48.7575314 35.3267917,48.7575314 L35.3267917,53.7613993 C35.3267917,53.7613993 29.8588332,57.1552841 16.8246486,57.1552841 C3.79046409,57.1552841 0,52.9564077 0,52.9564077 L0,48.7575314 Z" id="Rectangle-14-Copy-10"></path>
                </g>
                <g id="stack1" transform="translate(0.000000, 23.000000)">
                    <ellipse id="Oval-3" cx="18.0260135" cy="4.65689753" rx="17.5035203" ry="4.65689753"></ellipse>
                    <path d="M0.466271852,8.77518907 C0.466271852,8.77518907 7.21036202,12.0162646 16.7394974,12.0162646 C32.6581972,12.0162646 35.7930636,8.77518907 35.7930636,8.77518907 L35.7930636,13.779057 C35.7930636,13.779057 30.325105,17.1729418 17.2909205,17.1729418 C4.25673595,17.1729418 0.466271852,12.9740654 0.466271852,12.9740654 L0.466271852,8.77518907 Z" id="Rectangle-14"></path>
                    <path d="M0,17.075291 C0,17.075291 6.74409017,20.3163664 16.2732255,20.3163664 C32.1919253,20.3163664 35.3267917,17.075291 35.3267917,17.075291 L35.3267917,22.0791589 C35.3267917,22.0791589 29.8588332,25.4730437 16.8246486,25.4730437 C3.79046409,25.4730437 0,21.2741673 0,21.2741673 L0,17.075291 Z" id="Rectangle-14-Copy"></path>
                    <path d="M0,25.3542199 C0,25.3542199 6.74409017,28.5952954 16.2732255,28.5952954 C32.1919253,28.5952954 35.3267917,25.3542199 35.3267917,25.3542199 L35.3267917,30.3580878 C35.3267917,30.3580878 29.8588332,33.7519726 16.8246486,33.7519726 C3.79046409,33.7519726 0,29.5530963 0,29.5530963 L0,25.3542199 Z" id="Rectangle-14-Copy-2"></path>
                    <path d="M0,33.1157158 C0,33.1157158 6.74409017,36.3567913 16.2732255,36.3567913 C32.1919253,36.3567913 35.3267917,33.1157158 35.3267917,33.1157158 L35.3267917,38.1195837 C35.3267917,38.1195837 29.8588332,41.5134685 16.8246486,41.5134685 C3.79046409,41.5134685 0,37.3145922 0,37.3145922 L0,33.1157158 Z" id="Rectangle-14-Copy-3"></path>
                    <path d="M0,40.8772117 C0,40.8772117 6.74409017,44.1182872 16.2732255,44.1182872 C32.1919253,44.1182872 35.3267917,40.8772117 35.3267917,40.8772117 L35.3267917,45.8810796 C35.3267917,45.8810796 29.8588332,49.2749644 16.8246486,49.2749644 C3.79046409,49.2749644 0,45.076088 0,45.076088 L0,40.8772117 Z" id="Rectangle-14-Copy-4"></path>
                </g>
            </g>
        </g>
    </g>
</svg>